<?xml version="1.0" encoding="UTF-8" standalone="no"?>
<!-- Created with Inkscape (http://www.inkscape.org/) -->

<svg
   xmlns:dc="http://purl.org/dc/elements/1.1/"
   xmlns:cc="http://creativecommons.org/ns#"
   xmlns:rdf="http://www.w3.org/1999/02/22-rdf-syntax-ns#"
   xmlns:svg="http://www.w3.org/2000/svg"
   xmlns="http://www.w3.org/2000/svg"
   xmlns:xlink="http://www.w3.org/1999/xlink"
   xmlns:sodipodi="http://sodipodi.sourceforge.net/DTD/sodipodi-0.dtd"
   xmlns:inkscape="http://www.inkscape.org/namespaces/inkscape"
   width="108"
   height="108"
   viewBox="0 0 108 108"
   version="1.1"
   id="svg8"
   sodipodi:docname="launcher_icon.svg"
   inkscape:version="0.92.4 5da689c313, 2019-01-14">
  <sodipodi:namedview
     id="base"
     pagecolor="#ffffff"
     bordercolor="#666666"
     borderopacity="1.0"
     inkscape:pageopacity="0.0"
     inkscape:pageshadow="2"
     inkscape:zoom="5.6568542"
     inkscape:cx="33.755315"
     inkscape:cy="52.822579"
     inkscape:document-units="px"
     inkscape:current-layer="layer"
     showgrid="false"
     units="px"
     inkscape:pagecheckerboard="false"
     showborder="true"
     inkscape:window-width="1920"
     inkscape:window-height="1016"
     inkscape:window-x="0"
     inkscape:window-y="27"
     inkscape:window-maximized="1"
     inkscape:snap-bbox="true"
     inkscape:bbox-paths="true"
     inkscape:bbox-nodes="true"
     inkscape:snap-bbox-edge-midpoints="true"
     inkscape:snap-bbox-midpoints="true"
     inkscape:object-paths="true"
     inkscape:snap-intersection-paths="true"
     inkscape:snap-smooth-nodes="true"
     inkscape:snap-midpoints="true"
     inkscape:snap-object-midpoints="true"
     inkscape:snap-center="true" />
  <defs
     id="defs2">
    <linearGradient
       inkscape:collect="always"
       id="linearGradient843">
      <stop
         style="stop-color:#000000;stop-opacity:0.1"
         offset="0"
         id="stop839" />
      <stop
         style="stop-color:#000000;stop-opacity:0"
         offset="1"
         id="stop841" />
    </linearGradient>
    <linearGradient
       id="linearGradient874"
       inkscape:collect="always">
      <stop
         id="stop870"
         offset="0"
         style="stop-color:#ffffff;stop-opacity:0.1" />
      <stop
         style="stop-color:#ffffff;stop-opacity:0.05"
         offset="0.33333333"
         id="stop878" />
      <stop
         id="stop872"
         offset="1"
         style="stop-color:#ffffff;stop-opacity:0;" />
    </linearGradient>
    <radialGradient
       gradientTransform="matrix(0,1,-1,0,18,18)"
       gradientUnits="userSpaceOnUse"
       r="72"
       fy="0"
       fx="0"
       cy="0"
       cx="0"
       id="radialGradient876"
       xlink:href="#linearGradient874"
       inkscape:collect="always" />
    <linearGradient
       inkscape:collect="always"
       xlink:href="#linearGradient843"
       id="linearGradient845"
       x1="34"
       y1="34"
       x2="108"
       y2="108"
       gradientUnits="userSpaceOnUse" />
    <clipPath
       clipPathUnits="userSpaceOnUse"
       id="clipPath843">
      <circle
         r="36"
         cy="54"
         cx="54"
         id="circle845"
         style="opacity:1;fill:#ffffff;fill-opacity:1;fill-rule:nonzero;stroke:none;stroke-width:1.54617035;stroke-linecap:round;stroke-linejoin:miter;stroke-miterlimit:4;stroke-dasharray:none;stroke-opacity:1" />
    </clipPath>
    <clipPath
       clipPathUnits="userSpaceOnUse"
       id="clipPath849">
      <path
         sodipodi:nodetypes="csccssssscc"
         style="fill:#ffffff;fill-opacity:1;stroke:none;stroke-width:2.09999967"
         id="path851"
         d="m 149.8,366.19997 h -12.6 c -2.31,0 -4.2,1.89 -4.2,4.2 v 27.6 c 0,2.31 1.89,4.2 4.2,4.2 h 33.6 c 2.31,0 4.2,-1.89 4.2,-4.2 v -23.4 c 0,-2.31 -1.89,-4.2 -4.2,-4.2 H 154 Z"
         inkscape:connector-curvature="0" />
    </clipPath>
    <filter
       height="2"
       width="2"
       y="-0.5"
       x="-0.5"
       id="filter849"
       inkscape:label="Drop Shadow"
       style="color-interpolation-filters:sRGB;">
      <feFlood
         id="feFlood839"
         result="flood"
         flood-color="rgb(0,0,0)"
         flood-opacity="0.2" />
      <feComposite
         id="feComposite841"
         result="composite1"
         operator="in"
         in2="SourceGraphic"
         in="flood" />
      <feGaussianBlur
         id="feGaussianBlur843"
         result="blur"
         stdDeviation="2"
         in="composite1" />
      <feOffset
         id="feOffset845"
         result="offset"
         dy="2"
         dx="0" />
      <feComposite
         id="feComposite847"
         result="composite2"
         operator="over"
         in2="offset"
         in="SourceGraphic" />
    </filter>
    <filter
       style="color-interpolation-filters:sRGB;"
       inkscape:label="Drop Shadow"
       id="filter856"
       x="-0.5"
       y="-0.5"
       width="2"
       height="2">
      <feFlood
         flood-opacity="0.3"
         flood-color="rgb(0,0,0)"
         result="flood"
         id="feFlood845" />
      <feComposite
         in="flood"
         in2="SourceGraphic"
         operator="in"
         result="composite1"
         id="feComposite848" />
      <feGaussianBlur
         in="composite1"
         stdDeviation="1"
         result="blur"
         id="feGaussianBlur850" />
      <feOffset
         dx="0"
         dy="1"
         result="offset"
         id="feOffset852" />
      <feComposite
         in="SourceGraphic"
         in2="offset"
         operator="over"
         result="composite2"
         id="feComposite854" />
    </filter>
  </defs>
  <metadata
     id="metadata5">
    <rdf:RDF>
      <cc:Work
         rdf:about="">
        <dc:format>image/svg+xml</dc:format>
        <dc:type
           rdf:resource="http://purl.org/dc/dcmitype/StillImage" />
        <dc:title />
      </cc:Work>
    </rdf:RDF>
  </metadata>
  <g
     id="layer"
     inkscape:groupmode="layer"
     inkscape:label="Layer 1">
    <circle
       style="opacity:1;fill:#4caf50;fill-opacity:1;fill-rule:nonzero;stroke:none;stroke-width:1.54617035;stroke-linecap:round;stroke-linejoin:miter;stroke-miterlimit:4;stroke-dasharray:none;stroke-opacity:1;filter:url(#filter856)"
       id="circle"
       cx="54"
       cy="54"
       r="36" />
    <path
       style="opacity:1;fill:#000000;fill-opacity:0.2;fill-rule:nonzero;stroke:none;stroke-width:1.54617035;stroke-linecap:round;stroke-linejoin:miter;stroke-miterlimit:4;stroke-dasharray:none;stroke-opacity:1"
       d="M 89.990234,53.707031 A 36,36 0 0 1 54,89.5 36,36 0 0 1 18.009766,53.792969 36,36 0 0 0 18,54 36,36 0 0 0 54,90 36,36 0 0 0 90,54 36,36 0 0 0 89.9902,53.707031 Z"
       id="circle-edge-bottom"
       inkscape:connector-curvature="0" />
    <path
       style="opacity:1;fill:#ffffff;fill-opacity:0.2;fill-rule:nonzero;stroke:none;stroke-width:1.54617035;stroke-linecap:round;stroke-linejoin:miter;stroke-miterlimit:4;stroke-dasharray:none;stroke-opacity:1"
       d="M 54,18 A 36,36 0 0 0 18,54 36,36 0 0 0 18.0098,54.292969 36,36 0 0 1 54,18.5 36,36 0 0 1 89.990234,54.207031 36,36 0 0 0 90,54 36,36 0 0 0 54,18 Z"
       id="circle-edge-top"
       inkscape:connector-curvature="0" />
    <g
       id="circle-clip-group"
       clip-path="url(#clipPath843)">
      <path
         d="m 35.863281,35.095703 v 2.466797 2.464844 l 3.177735,3.177734 h -0.328125 v 7.945313 7.945312 l 4.5625,4.5625 c 0.310702,0.610406 0.596342,1.210096 0.818359,1.75 0.383562,0.93151 0.974609,2.531035 0.974609,2.640625 0,0.022 -2.486627,0.0332 -5.533203,0.0332 H 34 v 2.41211 2.410156 l 76.36719,76.367183 h 20 20 v -2.41015 -2.41211 l -7.82422,-7.82422 c 0.004,-0.0171 0.043,-0.10127 0.043,-0.10938 0,-0.0138 -0.008,-0.0291 -0.0254,-0.0469 l -0.98633,-0.98633 c 0.31044,-0.002 0.49912,-0.006 0.93555,-0.008 l 2.70703,-0.0117 v -7.94531 -7.94531 l -3.17774,-3.17774 h 6.68555 v -2.46484 -2.4668 L 72.355469,35.095703 H 54.109375 Z"
         id="text-long-shadow"
         inkscape:connector-curvature="0"
         style="fill:url(#linearGradient845);fill-opacity:1;stroke:none;stroke-width:2.09999967"
         sodipodi:nodetypes="sccccssssccsccs" />
      <path
         inkscape:connector-curvature="0"
         d="m 38.712329,51.150635 v 7.94521 h 3.265753 l 3.254795,0.011 -1.80822,0.76713 c -0.986301,0.41643 -1.808219,0.77808 -1.819178,0.78904 -0.02192,0.011 0.19726,0.39452 0.471234,0.84384 0.8,1.30411 1.534246,2.72877 2.016438,3.90137 0.383562,0.93151 0.975342,2.53151 0.975342,2.6411 0,0.022 -2.487671,0.0329 -5.534247,0.0329 H 34 v 2.41098 2.41095 h 20 20 v -2.41095 -2.41098 h -5.753425 -5.753424 l 0.909588,-1.78629 c 1.00822,-1.98357 2.816439,-5.91781 2.816439,-6.14794 0,-0.0877 -0.372603,-0.26302 -0.953424,-0.43836 -2.071233,-0.63561 -2.126028,-0.59178 0.876712,-0.60274 l 2.706849,-0.011 v -7.94521 -7.9452 H 53.780822 38.712329 Z m 25.205479,-0.0548 v 3.17809 H 53.780822 43.643836 v -3.17809 -3.17808 h 10.136986 10.136986 z m -3.39726,8.0548 c 0,0.14247 -0.975343,2.67397 -1.556164,4.04384 -0.789041,1.863 -2.257535,4.77807 -2.432877,4.84383 -0.06575,0.022 -1.917809,0.0329 -4.120548,0.022 l -4,-0.0329 1.019178,-0.4274 c 0.558904,-0.23014 1.041096,-0.47124 1.063014,-0.51507 0.03287,-0.0438 0.01096,-0.19726 -0.04384,-0.33972 -0.06575,-0.14248 -0.306849,-0.75617 -0.547945,-1.38082 -0.690411,-1.73151 -2.049316,-4.32877 -3.123288,-5.97261 l -0.19726,-0.29589 h 6.969863 c 3.835617,0 6.969863,0.022 6.969863,0.0548 z M 35.863013,37.561605 v 2.46575 h 18.246576 18.246575 v -2.46575 -2.46576 H 54.109589 35.863013 Z"
         id="text"
         style="fill:#ffffff;fill-opacity:1;stroke:none;stroke-width:0.23013695;filter:url(#filter849)"
         sodipodi:nodetypes="csccssssscc" />
      <rect
         style="opacity:1;fill:url(#radialGradient876);fill-opacity:1;fill-rule:nonzero;stroke:none;stroke-width:3.77952766;stroke-linecap:round;stroke-linejoin:miter;stroke-miterlimit:4;stroke-dasharray:none;stroke-opacity:1"
         id="light"
         width="108"
         height="108"
         x="0"
         y="0" />
    </g>
  </g>
</svg>
