<?xml version="1.0" encoding="UTF-8" standalone="no"?>
<svg
   xmlns:dc="http://purl.org/dc/elements/1.1/"
   xmlns:cc="http://creativecommons.org/ns#"
   xmlns:rdf="http://www.w3.org/1999/02/22-rdf-syntax-ns#"
   xmlns:svg="http://www.w3.org/2000/svg"
   xmlns="http://www.w3.org/2000/svg"
   version="1.1"
   id="svg2"
   width="108"
   height="108"
   viewBox="0 0 108 108">
  <metadata
     id="metadata8">
    <rdf:RDF>
      <cc:Work
         rdf:about="">
        <dc:format>image/svg+xml</dc:format>
        <dc:type
           rdf:resource="http://purl.org/dc/dcmitype/StillImage" />
        <dc:title></dc:title>
      </cc:Work>
    </rdf:RDF>
  </metadata>
  <defs
     id="defs6" />
  <path
     id="path937"
     d="M 36.771484 36.0625 L 36.771484 40.955078 L 39.537109 43.720703 L 39.466797 43.720703 L 39.466797 58.890625 L 43.744141 63.167969 L 43.748047 63.175781 C 44.395744 64.462707 45.013897 65.819538 45.4375 67.1875 L 35 67.1875 L 35 71.9375 L 105.71094 142.64648 L 143.71094 142.64648 L 143.71094 137.89648 L 136.30273 130.48828 C 136.32933 130.42608 136.35611 130.36497 136.38281 130.30273 L 135.70703 129.62695 L 138.89062 129.59961 L 138.89062 114.43164 L 136.125 111.66602 L 142.08008 111.66602 L 142.08008 106.77344 L 71.369141 36.0625 L 36.771484 36.0625 z "
     style="fill:#000000;stroke:none;stroke-width:0.07089556" />
  <path
     id="path869"
     d="m 35,67.186577 h 10.437013 c -0.766561,-2.475494 -2.163872,-4.940778 -3.237085,-6.952585 l 3.044476,-1.306746 -5.777985,-0.03704 V 43.720149 h 28.712683 v 15.16971 l -4.643652,0.03739 2.136962,0.665356 c -1.10121,2.571527 -2.159465,5.120086 -3.443711,7.593974 H 73 v 4.75 H 35 Z M 60.035674,58.891792 H 47.177726 c 1.57491,2.526595 2.662393,4.725146 3.657203,7.514329 l -1.648277,0.749286 7.254428,-0.0042 c 1.430385,-2.808638 2.647969,-5.527393 3.594594,-8.259392 z M 63.28731,48.470145 H 44.429103 v 5.67165 H 63.28731 Z M 36.772388,36.06342 h 34.597011 v 4.891796 H 36.772388 Z"
     style="fill:#000000;stroke:none;stroke-width:0.07089556" />
</svg>
