<?xml version="1.0" encoding="UTF-8" standalone="no"?>
<svg
   xmlns:dc="http://purl.org/dc/elements/1.1/"
   xmlns:cc="http://creativecommons.org/ns#"
   xmlns:rdf="http://www.w3.org/1999/02/22-rdf-syntax-ns#"
   xmlns:svg="http://www.w3.org/2000/svg"
   xmlns="http://www.w3.org/2000/svg"
   viewBox="0 0 24 24"
   height="24"
   width="24"
   id="svg2"
   version="1.1">
  <metadata
     id="metadata8">
    <rdf:RDF>
      <cc:Work
         rdf:about="">
        <dc:format>image/svg+xml</dc:format>
        <dc:type
           rdf:resource="http://purl.org/dc/dcmitype/StillImage" />
        <dc:title></dc:title>
      </cc:Work>
    </rdf:RDF>
  </metadata>
  <defs
     id="defs6" />
  <path
     d="M 5.6529851,7.193928 H 18.399252 V 5.39165 H 5.6529851 Z m 9.7686559,4.858314 H 8.4738801 V 9.962643 h 6.9477609 z m -1.197971,1.750051 c -0.348757,1.006547 -0.797341,2.008214 -1.324325,3.043036 l -2.672684,0.0015 0.60726,-0.276058 C 10.467412,15.543156 10.066761,14.733147 9.4865307,13.802277 H 14.22367 Z M 5,18.60835 h 14 v -1.750033 h -3.968373 c 0.473143,-0.911451 0.863027,-1.850413 1.268736,-2.797836 l -0.787302,-0.245137 1.710818,-0.01378 V 8.212608 H 6.6455228 v 5.589081 l 2.1287313,0.01365 -1.121649,0.481443 c 0.3953942,0.741207 0.910193,1.649488 1.1926102,2.561531 H 5 Z M 4,2 h 16 c 1.108,0 2,0.892 2,2 v 16 c 0,1.108 -0.892,2 -2,2 H 4 C 2.892,22 2,21.108 2,20 V 4 C 2,2.892 2.892,2 4,2 Z"
     style="opacity:0.95;fill:#ffffff;fill-opacity:1;fill-rule:nonzero;stroke:none;stroke-width:3.77952766;stroke-linecap:round;stroke-linejoin:miter;stroke-miterlimit:4;stroke-dasharray:none;stroke-opacity:1"
     id="rect818" />
</svg>
